<svg width="161" height="135" viewBox="0 0 161 135" fill="none" xmlns="http://www.w3.org/2000/svg">
<path d="M160.789 48.2312C158.962 42.6806 155.109 36.5384 149.355 30.0419C146.478 26.7937 143.15 23.4492 139.311 20.1016C135.543 16.8144 131.084 13.3922 125.549 10.3218C114.558 4.21945 102.227 1.2909 92.9994 0.537129C82.6966 -0.301619 75.0001 1.02188 68.2334 2.77613C53.3164 6.63106 42.3563 12.89 33.5643 20.1912C24.6646 27.5964 17.4551 35.9106 11.6714 44.8221C5.75059 53.9335 1.70198 63.9271 0.939182 75.2255C0.57334 80.5827 0.803194 86.1999 2.47923 92.2892C4.04744 97.999 6.86499 104.294 12.4201 111.062C17.1203 116.787 24.9221 123.468 36.5264 128.206C47.7766 132.797 58.2449 134.158 66.2549 134.226C75.4235 134.307 82.8656 132.902 89.0384 130.91C95.4333 128.845 100.469 125.974 104.629 122.67C113.593 115.57 119.4 106.781 123.37 97.331C127.491 87.5219 129.254 76.6891 128.656 64.9955C128.504 62.1225 128.214 59.1968 127.784 56.2228C127.663 55.3901 124.637 54.3586 124.758 55.1913C126.458 66.93 125.947 77.8812 123.186 87.9101C120.449 97.8307 115.56 106.875 108.474 114.845C102.114 121.997 93.6126 128.35 79.3614 131.125C72.6416 132.436 64.7141 133.241 54.5552 131.83C49.8139 131.171 44.4579 129.966 38.9229 127.914C33.3588 125.855 28.1285 123 24.0283 119.97C15.3327 113.538 11.4193 106.979 8.68068 101.515C5.57539 95.3205 4.3962 89.676 4.0089 84.3582C3.1698 72.9083 5.78391 62.7458 10.4374 53.5253C15.067 44.3617 21.6162 36.0437 29.253 28.2893C36.6835 20.7469 45.5723 13.8773 57.6578 8.80516C63.5522 6.33036 70.0893 4.15577 77.8985 2.86918C85.0652 1.689 94.0283 1.24093 105.565 3.89857C111.085 5.17193 117.214 7.23096 122.801 10.1532C128.493 13.1298 133.068 16.5802 136.827 19.8635C144.293 26.3773 149.944 32.8407 153.683 38.7706C155.543 41.7211 156.904 44.535 157.781 47.2073C158.045 48.0796 161.079 49.1193 160.789 48.2312Z" fill="#41D5B8"/>
</svg>
