<svg width="209" height="142" viewBox="0 0 209 142" fill="none" xmlns="http://www.w3.org/2000/svg">
<path d="M31.7122 0.0780497C25.2877 3.95822 19.2085 9.96302 13.7235 17.883C10.9809 21.8429 8.36276 26.2617 6.02781 31.1593C3.73431 35.9672 1.64806 41.4732 0.639472 47.8471C-1.37079 60.505 1.63424 73.1729 5.81366 82.0904C10.4836 92.0451 16.5903 98.7183 22.7524 104.354C36.32 116.783 50.8892 124.573 65.6381 129.929C80.5873 135.345 95.8059 138.827 111.025 140.742C126.589 142.707 142.284 142.577 157.882 138.867C165.281 137.111 172.693 134.697 179.926 130.747C186.71 127.047 193.577 121.949 199.538 114.109C204.581 107.476 209.161 97.5712 208.996 84.8733C208.83 72.5645 204.768 62.2506 200.354 54.7396C195.304 46.1414 189.231 39.7376 183.083 34.7502C176.714 29.5833 170.027 26.0024 163.25 23.409C148.674 17.8131 133.607 15.8282 118.686 15.8182C103.198 15.8082 87.6612 18.4016 72.2975 23.5386C68.5257 24.8054 64.7608 26.2218 61.0096 27.7879C59.9596 28.2268 60.2774 31.4586 61.3274 31.0197C76.1315 24.8354 91.1222 21.025 106.14 19.6784C121 18.3518 135.894 19.3792 150.58 22.8803C163.761 26.0223 177.073 31.4785 188.817 43.7076C194.357 49.473 199.898 56.565 203.718 66.6096C205.5 71.2977 206.896 76.7738 207.255 82.7487C207.621 88.7535 206.73 94.7583 204.968 99.7756C201.224 110.419 194.62 116.643 188.824 121.341C182.254 126.667 175.339 129.979 168.417 132.423C153.516 137.69 138.401 139.226 123.404 138.488C108.496 137.749 93.6436 134.887 78.9362 130.787C64.6295 126.797 50.4057 121.181 36.7966 111.875C30.1579 107.336 23.5606 102.08 17.44 95.2869C11.8237 89.0527 6.17979 80.8535 3.25765 69.0334C1.86221 63.3777 1.1783 56.8443 1.95892 50.4804C2.75336 43.9968 4.81198 38.3711 7.10548 33.5732C11.651 24.0473 17.1499 16.2371 23.008 10.4219C25.9232 7.52918 28.9352 5.1552 32.03 3.28992C33.0524 2.70141 32.7416 -0.540384 31.7122 0.0780497Z" fill="#41D5B8"/>
</svg>
