<svg width="172" height="136" viewBox="0 0 172 136" fill="none" xmlns="http://www.w3.org/2000/svg">
<path d="M1.00997 35.2105C-0.109481 41.3057 0.345928 49.1165 2.38105 58.3553C3.39861 62.9747 4.78446 67.9437 6.64152 73.2131C8.46378 78.3866 10.8567 84.0845 14.4232 90.0901C21.502 102.02 31.4275 111.853 39.5834 117.908C48.6904 124.666 56.4808 127.947 63.6291 130.296C79.381 135.485 92.6891 136.192 104.519 134.692C116.501 133.16 127.38 129.82 137.241 125.109C147.331 120.297 156.136 113.595 162.561 103.797C165.611 99.1535 168.242 93.9279 169.774 87.4323C171.213 81.3436 171.793 73.9971 170.08 64.6281C168.629 56.7019 164.793 46.1046 156.456 35.0535C148.372 24.3431 139.376 17.0154 132 12.2904C123.558 6.87995 115.962 3.82058 109.243 2.03359C102.282 0.182143 96.1698 -0.146893 90.6484 0.426595C78.7609 1.64459 68.9398 6.23084 60.4829 12.4859C51.7052 18.9787 44.5902 27.7719 39.2243 38.7202C37.9106 41.413 36.6979 44.234 35.5902 47.1801C35.2805 48.0053 37.5584 50.7023 37.8682 49.8771C42.2374 38.2464 48.2533 28.6166 55.8843 21.1329C63.4382 13.7333 72.5399 8.38093 83.1302 5.28201C92.6344 2.50079 103.715 1.69116 118.305 7.47144C125.185 10.195 132.927 14.0805 141.611 21.2738C145.664 24.6314 150.009 28.8416 154.091 33.9236C158.197 39.0288 161.59 44.6619 163.85 49.7955C168.638 60.6883 168.939 68.9118 168.706 75.4593C168.444 82.8821 166.677 88.6852 164.344 93.7311C159.324 104.599 151.761 112.289 142.789 117.938C133.867 123.55 123.597 127.277 112.607 129.861C101.914 132.372 90.2136 133.425 76.465 130.987C69.7591 129.799 62.6104 127.965 54.7345 124.585C47.5068 121.483 38.9878 116.671 29.6596 107.546C25.1978 103.178 20.5692 97.7436 16.88 91.8424C13.1209 85.8307 10.6346 80.0395 8.81886 74.8748C5.20915 64.624 3.25308 55.4755 2.79551 47.9234C2.56862 44.1663 2.73322 40.8228 3.275 37.8901C3.47197 36.9455 1.19142 34.2368 1.00997 35.2105Z" fill="#41D5B8"/>
</svg>
