<svg width="161" height="135" viewBox="0 0 161 135" fill="none" xmlns="http://www.w3.org/2000/svg">
<path d="M160.273 48.2315C158.446 42.6809 154.593 36.5386 148.839 30.0422C145.962 26.794 142.634 23.4495 138.795 20.1018C135.027 16.8147 130.568 13.3925 125.033 10.322C114.042 4.21969 101.711 1.29115 92.4833 0.537373C82.1805 -0.301373 74.484 1.02212 67.7173 2.77637C52.8003 6.6313 41.8402 12.8902 33.0482 20.1914C24.1485 27.5967 16.939 35.9108 11.1553 44.8224C5.23447 53.9338 1.18586 63.9274 0.423068 75.2257C0.0572327 80.583 0.287077 86.2001 1.96311 92.2895C3.53132 97.9992 6.34888 104.294 11.904 111.062C16.6042 116.788 24.406 123.468 36.0103 128.207C47.2605 132.797 57.7288 134.158 65.7388 134.226C74.9074 134.307 82.3495 132.903 88.5223 130.91C94.9172 128.845 99.9526 125.975 104.113 122.67C113.077 115.57 118.884 106.781 122.854 97.3312C126.975 87.5222 128.738 76.6894 128.14 64.9957C127.988 62.1227 127.698 59.1971 127.268 56.223C127.147 55.3903 124.121 54.3588 124.242 55.1915C125.942 66.9302 125.431 77.8814 122.67 87.9103C119.933 97.8309 115.044 106.875 107.958 114.845C101.598 121.997 93.0964 128.35 78.8453 131.126C72.1255 132.436 64.198 133.241 54.0391 131.83C49.2978 131.171 43.9418 129.966 38.4068 127.914C32.8427 125.856 27.6124 123 23.5122 119.97C14.8166 113.538 10.9031 106.979 8.16457 101.515C5.05927 95.3207 3.88009 89.6762 3.49279 84.3584C2.65369 72.9085 5.26781 62.7461 9.92125 53.5256C14.5509 44.362 21.1001 36.0439 28.7369 28.2895C36.1674 20.7472 45.0562 13.8776 57.1417 8.80541C63.0361 6.3306 69.5732 4.15602 77.3824 2.86942C84.5491 1.68925 93.5121 1.24118 105.049 3.89881C110.569 5.17218 116.698 7.2312 122.285 10.1534C127.977 13.1301 132.552 16.5804 136.311 19.8638C143.777 26.3776 149.428 32.8409 153.167 38.7708C155.027 41.7213 156.388 44.5352 157.265 47.2076C157.529 48.0799 160.563 49.1196 160.273 48.2315Z" fill="#41D5B8"/>
</svg>
