<svg width="150" height="142" viewBox="0 0 150 142" fill="none" xmlns="http://www.w3.org/2000/svg">
<path d="M22.76 0.0780497C18.1491 3.95822 13.786 9.96302 9.84938 17.883C7.88106 21.8429 6.00198 26.2617 4.32618 31.1593C2.68013 35.9672 1.18282 41.4732 0.458951 47.8471C-0.983824 60.505 1.1729 73.1729 4.17248 82.0904C7.52409 92.0451 11.9069 98.7183 16.3295 104.354C26.067 116.783 36.5234 124.573 47.1087 129.929C57.8378 135.345 68.7602 138.827 79.6827 140.742C90.853 142.707 102.118 142.577 113.313 138.867C118.623 137.111 123.943 134.697 129.134 130.747C134.002 127.047 138.931 121.949 143.209 114.109C146.829 107.476 150.116 97.5712 149.997 84.8733C149.878 72.5645 146.963 62.2506 143.794 54.7396C140.17 46.1414 135.812 39.7376 131.399 34.7502C126.828 29.5833 122.029 26.0024 117.165 23.409C106.704 17.8131 95.8903 15.8282 85.1811 15.8182C74.0653 15.8082 62.9147 18.4016 51.8882 23.5386C49.1811 24.8054 46.479 26.2218 43.7868 27.7879C43.0332 28.2268 43.2613 31.4586 44.0149 31.0197C54.6399 24.8354 65.3987 21.025 76.1774 19.6784C86.842 18.3518 97.5314 19.3792 108.072 22.8803C117.532 26.0224 127.086 31.4785 135.515 43.7076C139.491 49.473 143.467 56.565 146.209 66.6096C147.488 71.2977 148.49 76.7738 148.747 82.7487C149.01 88.7535 148.371 94.7583 147.106 99.7756C144.419 110.419 139.679 116.643 135.52 121.341C130.805 126.667 125.842 129.979 120.874 132.423C110.179 137.69 99.3312 139.226 88.5674 138.488C77.868 137.749 67.2084 134.887 56.6528 130.787C46.3848 126.797 36.1763 121.181 26.4091 111.875C21.6444 107.336 16.9096 102.08 12.5168 95.2869C8.48593 89.0527 4.43526 80.8535 2.33803 69.0334C1.33652 63.3777 0.845672 56.8443 1.40593 50.4804C1.97609 43.9968 3.45358 38.3711 5.09963 33.5732C8.36199 24.0473 12.3085 16.2371 16.5129 10.4219C18.6052 7.52918 20.7669 5.1552 22.9881 3.28992C23.7218 2.70141 23.4987 -0.540384 22.76 0.0780497Z" fill="#41D5B8"/>
</svg>
